<?xml version="1.0" encoding="utf-8"?>
<!-- Generator: Adobe Illustrator 16.0.3, SVG Export Plug-In . SVG Version: 6.00 Build 0)  -->
<!DOCTYPE svg PUBLIC "-//W3C//DTD SVG 1.1//EN" "http://www.w3.org/Graphics/SVG/1.1/DTD/svg11.dtd">
<svg version="1.1" xmlns="http://www.w3.org/2000/svg" xmlns:xlink="http://www.w3.org/1999/xlink" x="0px" y="0px"
	 
	 xml:space="preserve">
<g id="Esfera">
</g>
<g id="Molecula">
</g>
<g id="Brillos">
</g>
<g id="Letras">
	<g>
		<path fill="#FFFFFF" d="M125.695,23.99c-1.242,0.006-2.486,0.006-3.729,0c-0.243,0-0.356,0.089-0.356,0.344
			c0.006,1.143,0.006,2.291,0,3.435c-0.006,0.254,0.107,0.349,0.35,0.343c0.61-0.006,1.219,0,1.83,0c0.633,0,1.266-0.006,1.899,0
			c0.244,0.006,0.35-0.077,0.35-0.337c-0.006-1.143-0.006-2.292,0-3.435C126.039,24.096,125.945,23.99,125.695,23.99z
			 M189.899,43.729c0.011-0.379-0.137-0.521-0.516-0.521c-2.227,0.012-4.453,0.012-6.673,0c-0.396,0-0.509,0.177-0.497,0.539
			c0.012,0.733-0.006,1.468,0.006,2.202c0.006,0.516,0.018,0.527,0.545,0.533c1.102,0.011,2.203,0.006,3.303,0.006
			c1.096,0,2.197-0.012,3.299,0c0.355,0.005,0.544-0.083,0.539-0.486C189.882,45.246,189.882,44.487,189.899,43.729z
			 M295.766,16.044c-0.112-0.729-0.385-1.35-1.155-1.746c0.889-0.521,1.114-0.752,1.291-1.291c0.361-1.125-0.195-2.149-1.396-2.487
			c-1.055-0.296-2.126-0.219-3.197-0.089c-0.634,0.077-0.574,0.148-0.568,0.687c0,2.103,0.006,4.204,0.006,6.306
			c0,0.071,0.006,0.143,0,0.219c-0.012,0.237,0.082,0.373,0.337,0.361h0.29c0.616,0,0.622,0,0.629-0.592
			c0.005-0.705,0.011-1.416-0.013-2.125c-0.005-0.361,0.089-0.563,0.491-0.516c0.219,0.03,0.439,0.018,0.657,0.036
			c0.729,0.071,1.161,0.461,1.297,1.178c0.053,0.291,0.101,0.581,0.172,0.865c0.343,1.361,0.201,1.137,1.479,1.13
			c0.029,0,0.065-0.059,0.13-0.112C295.973,17.294,295.872,16.667,295.766,16.044z M293.877,13.682
			c-0.136,0.053-0.278,0.101-0.427,0.118c-0.236,0.036-0.484,0.048-0.557,0.054c-0.295,0-0.414-0.012-0.538,0
			c-0.284,0.017-0.386-0.113-0.386-0.391c0.014-0.586,0.007-1.178-0.006-1.765c-0.005-0.272,0.107-0.402,0.373-0.427
			c0.545-0.053,1.078-0.029,1.588,0.184c0.497,0.207,0.775,0.581,0.77,1.137C294.694,13.108,294.415,13.481,293.877,13.682z
			 M295.766,16.044c-0.112-0.729-0.385-1.35-1.155-1.746c0.889-0.521,1.114-0.752,1.291-1.291c0.361-1.125-0.195-2.149-1.396-2.487
			c-1.055-0.296-2.126-0.219-3.197-0.089c-0.634,0.077-0.574,0.148-0.568,0.687c0,2.103,0.006,4.204,0.006,6.306
			c0,0.071,0.006,0.143,0,0.219c-0.012,0.237,0.082,0.373,0.337,0.361h0.29c0.616,0,0.622,0,0.629-0.592
			c0.005-0.705,0.011-1.416-0.013-2.125c-0.005-0.361,0.089-0.563,0.491-0.516c0.219,0.03,0.439,0.018,0.657,0.036
			c0.729,0.071,1.161,0.461,1.297,1.178c0.053,0.291,0.101,0.581,0.172,0.865c0.343,1.361,0.201,1.137,1.479,1.13
			c0.029,0,0.065-0.059,0.13-0.112C295.973,17.294,295.872,16.667,295.766,16.044z M293.877,13.682
			c-0.136,0.053-0.278,0.101-0.427,0.118c-0.236,0.036-0.484,0.048-0.557,0.054c-0.295,0-0.414-0.012-0.538,0
			c-0.284,0.017-0.386-0.113-0.386-0.391c0.014-0.586,0.007-1.178-0.006-1.765c-0.005-0.272,0.107-0.402,0.373-0.427
			c0.545-0.053,1.078-0.029,1.588,0.184c0.497,0.207,0.775,0.581,0.77,1.137C294.694,13.108,294.415,13.481,293.877,13.682z
			 M293.291,7.371c-3.796-0.012-6.814,2.943-6.833,6.673c-0.018,3.795,2.973,6.803,6.773,6.821c3.789,0.012,6.762-2.943,6.768-6.726
			C300.005,10.331,297.08,7.377,293.291,7.371z M297.009,18.312c-1.516,1.433-3.334,1.83-5.305,1.237
			c-2.008-0.604-3.227-2.024-3.766-4.044c-0.059-0.237-0.1-0.479-0.13-0.722c-0.03-0.219-0.023-0.438-0.036-0.717
			c0.023-1.646,0.622-3.091,1.877-4.25c1.978-1.812,4.991-1.883,7.052-0.166C299.317,11.83,299.478,15.974,297.009,18.312z
			 M294.61,14.298c0.889-0.521,1.114-0.752,1.291-1.291c0.361-1.125-0.195-2.149-1.396-2.487c-1.055-0.296-2.126-0.219-3.197-0.089
			c-0.634,0.077-0.574,0.148-0.568,0.687c0,2.103,0.006,4.204,0.006,6.306c0,0.071,0.006,0.143,0,0.219
			c-0.012,0.237,0.082,0.373,0.337,0.361h0.29c0.616,0,0.622,0,0.629-0.592c0.005-0.705,0.011-1.416-0.013-2.125
			c-0.005-0.361,0.089-0.563,0.491-0.516c0.219,0.03,0.439,0.018,0.657,0.036c0.729,0.071,1.161,0.461,1.297,1.178
			c0.053,0.291,0.101,0.581,0.172,0.865c0.343,1.361,0.201,1.137,1.479,1.13c0.029,0,0.065-0.059,0.13-0.112
			c-0.242-0.574-0.343-1.202-0.449-1.824C295.653,15.316,295.381,14.695,294.61,14.298z M293.877,13.682
			c-0.136,0.053-0.278,0.101-0.427,0.118c-0.236,0.036-0.484,0.048-0.557,0.054c-0.295,0-0.414-0.012-0.538,0
			c-0.284,0.017-0.386-0.113-0.386-0.391c0.014-0.586,0.007-1.178-0.006-1.765c-0.005-0.272,0.107-0.402,0.373-0.427
			c0.545-0.053,1.078-0.029,1.588,0.184c0.497,0.207,0.775,0.581,0.77,1.137C294.694,13.108,294.415,13.481,293.877,13.682z
			 M295.766,16.044c-0.112-0.729-0.385-1.35-1.155-1.746c0.889-0.521,1.114-0.752,1.291-1.291c0.361-1.125-0.195-2.149-1.396-2.487
			c-1.055-0.296-2.126-0.219-3.197-0.089c-0.634,0.077-0.574,0.148-0.568,0.687c0,2.103,0.006,4.204,0.006,6.306
			c0,0.071,0.006,0.143,0,0.219c-0.012,0.237,0.082,0.373,0.337,0.361h0.29c0.616,0,0.622,0,0.629-0.592
			c0.005-0.705,0.011-1.416-0.013-2.125c-0.005-0.361,0.089-0.563,0.491-0.516c0.219,0.03,0.439,0.018,0.657,0.036
			c0.729,0.071,1.161,0.461,1.297,1.178c0.053,0.291,0.101,0.581,0.172,0.865c0.343,1.361,0.201,1.137,1.479,1.13
			c0.029,0,0.065-0.059,0.13-0.112C295.973,17.294,295.872,16.667,295.766,16.044z M293.877,13.682
			c-0.136,0.053-0.278,0.101-0.427,0.118c-0.236,0.036-0.484,0.048-0.557,0.054c-0.295,0-0.414-0.012-0.538,0
			c-0.284,0.017-0.386-0.113-0.386-0.391c0.014-0.586,0.007-1.178-0.006-1.765c-0.005-0.272,0.107-0.402,0.373-0.427
			c0.545-0.053,1.078-0.029,1.588,0.184c0.497,0.207,0.775,0.581,0.77,1.137C294.694,13.108,294.415,13.481,293.877,13.682z
			 M295.766,16.044c-0.112-0.729-0.385-1.35-1.155-1.746c0.889-0.521,1.114-0.752,1.291-1.291c0.361-1.125-0.195-2.149-1.396-2.487
			c-1.055-0.296-2.126-0.219-3.197-0.089c-0.634,0.077-0.574,0.148-0.568,0.687c0,2.103,0.006,4.204,0.006,6.306
			c0,0.071,0.006,0.143,0,0.219c-0.012,0.237,0.082,0.373,0.337,0.361h0.29c0.616,0,0.622,0,0.629-0.592
			c0.005-0.705,0.011-1.416-0.013-2.125c-0.005-0.361,0.089-0.563,0.491-0.516c0.219,0.03,0.439,0.018,0.657,0.036
			c0.729,0.071,1.161,0.461,1.297,1.178c0.053,0.291,0.101,0.581,0.172,0.865c0.343,1.361,0.201,1.137,1.479,1.13
			c0.029,0,0.065-0.059,0.13-0.112C295.973,17.294,295.872,16.667,295.766,16.044z M293.877,13.682
			c-0.136,0.053-0.278,0.101-0.427,0.118c-0.236,0.036-0.484,0.048-0.557,0.054c-0.295,0-0.414-0.012-0.538,0
			c-0.284,0.017-0.386-0.113-0.386-0.391c0.014-0.586,0.007-1.178-0.006-1.765c-0.005-0.272,0.107-0.402,0.373-0.427
			c0.545-0.053,1.078-0.029,1.588,0.184c0.497,0.207,0.775,0.581,0.77,1.137C294.694,13.108,294.415,13.481,293.877,13.682z
			 M125.495,32.942c-1.125-0.006-2.25,0.007-3.375-0.006c-0.361-0.006-0.563,0.077-0.51,0.485c0.012,0.119,0,0.242,0,0.361v23.044
			c0,0.147,0.006,0.296,0,0.443c-0.018,0.261,0.064,0.408,0.361,0.408c1.25-0.006,2.493-0.006,3.742,0
			c0.26,0,0.338-0.142,0.325-0.373c-0.006-0.171,0-0.344,0-0.515V37.637c0-1.368,0.007-2.735,0-4.109
			C126.033,32.954,126.027,32.942,125.495,32.942z M45.495,32.977c-2.546,0.148-4.819,0.989-6.778,2.647
			c-0.16,0.136-0.285,0.337-0.511,0.36c-0.129-0.059-0.112-0.165-0.136-0.254c-0.194-0.782-0.403-1.563-0.586-2.351
			c-0.071-0.32-0.226-0.438-0.557-0.427c-0.586,0.023-1.172,0.006-1.758,0.012c-0.829,0-0.782-0.101-0.782,0.794v23.196
			c0,0.841-0.047,0.765,0.734,0.765c0.93,0.006,1.859,0.006,2.787,0c1.021-0.006,0.907,0.112,0.907-0.899
			c0-5.454,0.006-10.913-0.012-16.365c-0.006-0.539,0.154-0.918,0.545-1.273c0.964-0.888,2.043-1.581,3.292-2.013
			c0.953-0.332,1.937-0.492,2.942-0.551c0.545-0.036,0.551-0.029,0.551-0.586c0.006-0.811,0.006-1.616,0-2.428
			C46.135,32.949,46.129,32.942,45.495,32.977z M115.151,54.173c-0.195,0.006-0.391,0.006-0.586,0
			c-0.953-0.024-1.907,0.06-2.859-0.071c-1.107-0.154-1.806-0.775-2.145-1.835c-0.172-0.545-0.194-1.107-0.194-1.67
			c-0.006-4.452-0.006-8.898-0.006-13.351c0-0.729,0.006-0.734,0.716-0.734c1.617,0,3.227,0.006,4.843,0
			c0.521-0.006,0.532-0.018,0.532-0.521c0.013-0.805,0.007-1.609,0.007-2.415c-0.007-0.604-0.013-0.61-0.604-0.61
			c-1.883-0.006-3.766-0.012-5.648,0.006c-0.415,0.006-0.599-0.106-0.687-0.539c-0.202-1.006-0.474-1.994-0.705-2.995
			c-0.059-0.249-0.106-0.474-0.443-0.468c-0.711,0.018-1.422,0.012-2.127,0.006c-0.248,0-0.361,0.106-0.349,0.354
			c0.012,0.173,0,0.344,0,0.511v10.786c0,3.376,0.006,6.75,0,10.125c-0.007,0.687,0.048,1.367,0.136,2.043
			c0.379,2.787,2.121,4.487,4.896,4.831c0.977,0.124,1.955,0.083,2.931,0.095c0.734,0.006,1.468-0.006,2.203,0.006
			c0.272,0,0.402-0.089,0.396-0.38c-0.007-0.952-0.007-1.905,0-2.859C115.459,54.274,115.363,54.173,115.151,54.173z
			 M153.961,32.959c-1.32,0-2.642-0.006-3.955,0.006c-0.771,0.006-0.682-0.153-0.982,0.669c-2.19,5.938-4.387,11.871-6.591,17.804
			c-0.094,0.242-0.124,0.526-0.344,0.717c-0.177-0.19-0.219-0.438-0.307-0.669c-1.734-4.643-3.463-9.296-5.192-13.943
			c-0.515-1.374-1.018-2.747-1.534-4.121c-0.082-0.225-0.13-0.468-0.473-0.462c-1.463,0.012-2.925,0.006-4.387,0.006
			c-0.072,0.308,0.088,0.516,0.17,0.734c1.664,4.287,3.329,8.567,4.992,12.848c1.374,3.529,2.746,7.058,4.121,10.593
			c0.231,0.58,0.237,0.58,0.828,0.58c0.953,0.006,1.907,0.006,2.86,0c0.657,0,0.657,0,0.905-0.592
			c3.233-7.81,6.465-15.625,9.697-23.435C153.865,33.468,154.02,33.267,153.961,32.959z M27.579,52.764
			c-0.438,0.147-0.758,0.255-1.083,0.361c-4.15,1.314-8.378,1.705-12.665,0.806c-4.257-0.9-7.24-3.334-8.555-7.561
			c-1.071-3.464-1.143-6.993-0.308-10.51c0.668-2.83,2.208-5.085,4.765-6.584c1.718-1,3.594-1.521,5.555-1.752
			c3.991-0.474,7.902-0.071,11.711,1.255c0.166,0.06,0.336,0.201,0.58,0.053c0-0.982,0.006-1.982,0-2.983
			c-0.006-0.634,0.137-0.609-0.635-0.835c-3.124-0.918-6.315-1.261-9.566-1.214c-2.534,0.042-5.026,0.314-7.448,1.084
			c-4.802,1.527-7.916,4.688-9.23,9.573c-0.438,1.641-0.639,3.31-0.687,5.004c-0.065,2.557,0.106,5.085,0.781,7.56
			c1.09,3.973,3.328,7.04,7.063,8.911c2.062,1.023,4.259,1.568,6.538,1.812c2.854,0.314,5.713,0.254,8.554-0.148
			c1.411-0.201,2.79-0.515,4.15-0.911c0.262-0.077,0.498-0.143,0.486-0.521C27.562,55.068,27.579,53.966,27.579,52.764z
			 M258.169,39.526c-0.751-3.44-2.794-5.689-6.217-6.607c-1.752-0.474-3.539-0.604-5.363-0.486
			c-1.551,0.101-3.055,0.344-4.494,0.925c-2.237,0.899-3.848,2.457-4.83,4.659c-0.605,1.35-0.912,2.771-1.066,4.245
			c-0.249,2.428-0.166,4.831,0.497,7.188c0.704,2.516,2.085,4.553,4.37,5.927c1.918,1.149,4.025,1.652,6.204,1.781
			c2.937,0.173,5.861,0.048,8.751-0.567c1.249-0.268,1.255-0.261,1.255-1.533c0-0.64,0.006-1.273-0.006-1.913
			c-0.012-0.396-0.106-0.455-0.503-0.396c-0.07,0.012-0.143,0.042-0.213,0.059c-2.505,0.617-5.057,0.841-7.626,0.776
			c-1.462-0.036-2.907-0.272-4.292-0.817c-2.813-1.112-3.967-3.646-3.973-6.187c0-0.326,0.135-0.444,0.438-0.427
			c0.172,0.006,0.344,0,0.515,0h15.851c0.763,0,0.793-0.006,0.875-0.722C258.567,43.458,258.596,41.486,258.169,39.526z
			 M253.569,42.409c-0.734,0.006-1.469,0-2.197,0h-10.035c-0.686,0-0.716-0.012-0.639-0.698c0.313-2.782,1.781-4.943,4.878-5.524
			c1.386-0.26,2.76-0.302,4.139-0.006c2.563,0.551,3.831,2.209,4.269,4.613c0.06,0.337,0.113,0.674,0.131,1.012
			C254.149,42.355,254.114,42.397,253.569,42.409z M178.573,40.514c-0.658-3.818-2.961-6.287-6.738-7.141
			c-2.516-0.567-5.051-0.562-7.566,0c-3.695,0.823-6.129,3.044-7.141,6.702c-0.924,3.352-0.912,6.732,0.036,10.071
			c0.823,2.913,2.61,5.051,5.4,6.3c1.491,0.67,3.06,0.995,4.676,1.16c1.883,0.195,3.766,0.113,5.643-0.035
			c1.438-0.113,2.865-0.326,4.269-0.692c0.23-0.059,0.408-0.119,0.408-0.415c-0.006-1.048-0.006-2.096-0.006-3.232
			c-2.303,0.615-4.535,0.87-6.791,0.924c-1.498,0.035-2.983-0.029-4.445-0.379c-3.285-0.793-5.156-2.996-5.353-6.312
			c-0.065-1.066-0.047-0.871,0.817-0.871c5.387-0.005,10.77,0,16.15,0c0.676,0,0.688-0.005,0.753-0.668
			C178.856,44.12,178.886,42.321,178.573,40.514z M174.015,42.942c-2.097,0.006-4.199,0-6.301,0c-2.072,0-4.15,0.006-6.229,0
			c-0.562,0-0.58-0.018-0.51-0.58c0.091-0.675,0.226-1.345,0.463-1.989c0.658-1.765,1.871-2.948,3.676-3.487
			c1.771-0.532,3.564-0.586,5.354-0.118c1.781,0.468,2.99,1.586,3.6,3.333c0.266,0.764,0.408,1.557,0.438,2.362
			C174.517,42.924,174.511,42.942,174.015,42.942z M71.552,40.917c-0.515-3.925-2.83-6.589-6.619-7.501
			c-2.511-0.604-5.038-0.609-7.566-0.083c-4.021,0.835-6.519,3.286-7.472,7.259c-0.747,3.091-0.729,6.211,0.094,9.29
			c0.865,3.232,2.831,5.535,5.968,6.772c1.374,0.539,2.808,0.823,4.276,0.96c2.302,0.213,4.594,0.076,6.879-0.178
			c0.993-0.112,1.978-0.308,2.955-0.557c0.266-0.071,0.432-0.166,0.426-0.479c-0.012-1.024-0.006-2.05-0.006-3.145
			c-0.22,0.042-0.314,0.054-0.402,0.077c-2.12,0.545-4.281,0.77-6.46,0.823c-1.475,0.035-2.937-0.023-4.375-0.379
			c-3.796-0.924-5.252-3.416-5.406-6.72c-0.018-0.35,0.107-0.498,0.456-0.463c0.172,0.013,0.343,0,0.516,0h16.14
			c0.545-0.005,0.55-0.011,0.61-0.556C71.765,44.333,71.776,42.628,71.552,40.917z M67.017,42.948
			c-0.532-0.012-1.071-0.006-1.61-0.006c-3.565,0-7.129,0.006-10.692,0c-0.267,0-0.539,0.036-0.794-0.054
			c0.022-3.587,2.103-5.76,5.091-6.258c1.161-0.195,2.328-0.225,3.5-0.048c2.682,0.403,4.346,2.031,4.778,4.714
			c0.065,0.408,0.095,0.822,0.148,1.231C67.478,42.853,67.331,42.959,67.017,42.948z M97.786,40.378
			c-0.107-3.049-1.551-5.169-4.393-6.323c-0.729-0.296-1.48-0.515-2.251-0.669c-2.492-0.492-5.002-0.533-7.519-0.255
			c-1.533,0.172-3.038,0.479-4.535,0.87c-0.35,0.089-0.521,0.249-0.504,0.646c0.03,0.806,0.007,1.617,0.013,2.422
			c0,0.184-0.071,0.391,0.089,0.538c0.035,0.006,0.059,0.019,0.083,0.012c0.282-0.064,0.568-0.136,0.853-0.201
			c2.841-0.704,5.72-1.071,8.648-0.816c1.132,0.101,2.228,0.331,3.221,0.899c1.02,0.587,1.659,1.444,1.783,2.623
			c0.1,0.947,0.06,1.901,0.03,2.938c-0.219-0.013-0.361-0.007-0.504-0.03c-2.333-0.319-4.677-0.461-7.028-0.385
			c-1.763,0.06-3.504,0.308-5.145,1.019c-2.077,0.894-3.41,2.41-3.89,4.636c-0.202,0.941-0.242,1.895-0.16,2.848
			c0.284,3.28,2.001,5.329,5.182,6.134c2.013,0.509,4.061,0.568,6.114,0.255c1.908-0.296,3.684-0.953,5.34-1.942
			c0.499-0.302,0.475-0.42,0.878,0.225c0.326,0.521,0.651,1.036,0.971,1.558c0.137,0.225,0.297,0.361,0.585,0.35
			c0.588-0.018,1.172-0.012,1.76,0c0.284,0.006,0.402-0.119,0.385-0.396c-0.006-0.167,0-0.338,0-0.509V41.26
			C97.792,40.97,97.798,40.674,97.786,40.378z M93.322,49.271c0,0.633-0.024,1.267,0.012,1.9c0.017,0.438-0.126,0.717-0.499,0.959
			c-1.715,1.119-3.592,1.747-5.616,1.948c-0.925,0.089-1.849,0.137-2.784,0.018c-2.527-0.325-3.558-1.906-3.428-4.251
			c0.09-1.651,1.006-2.699,2.546-3.227c0.888-0.308,1.807-0.427,2.736-0.443c2.178-0.048,4.345,0.123,6.506,0.391
			c0.392,0.047,0.551,0.165,0.539,0.573C93.305,47.85,93.322,48.56,93.322,49.271z M285.387,23.392
			c-0.054,0-0.101-0.006-0.148-0.006c-1.124,0-2.249-0.006-3.374,0.006c-0.551,0-0.563,0.029-0.58,0.586
			c-0.006,0.148-0.006,0.296-0.006,0.438c0,2.765,0.006,5.529,0,8.295c0,0.237,0.064,0.485-0.083,0.751
			c-0.185-0.059-0.361-0.111-0.546-0.177c-0.183-0.065-0.36-0.148-0.55-0.201c-2.202-0.628-4.435-0.889-6.731-0.652
			c-1.42,0.148-2.801,0.403-4.127,0.919c-1.765,0.687-3.18,1.812-4.222,3.392c-1.131,1.718-1.586,3.654-1.776,5.672
			c-0.118,1.22-0.118,2.434-0.023,3.66c0.137,1.734,0.415,3.439,1.066,5.062c0.947,2.351,2.521,4.109,4.884,5.104
			c1.433,0.604,2.942,0.889,4.493,0.941c2.57,0.089,5.128-0.095,7.668-0.449c1.309-0.185,2.593-0.469,3.86-0.854
			c0.586-0.183,0.58-0.188,0.593-0.816V24.31c0-0.172-0.007-0.343,0-0.516C285.79,23.523,285.659,23.386,285.387,23.392z
			 M281.278,45.08c0,2.273,0.006,4.547,0,6.82c0,0.663,0,0.663-0.629,0.841c-2.035,0.592-4.12,0.811-6.228,0.692
			c-1.462-0.077-2.836-0.474-4.009-1.415c-1.285-1.03-1.988-2.416-2.355-3.961c-0.504-2.131-0.61-4.292-0.201-6.465
			c0.563-2.996,2.587-4.867,5.605-5.252c2.352-0.296,4.625-0.035,6.851,0.74c0.16,0.054,0.314,0.13,0.479,0.184
			c0.385,0.118,0.504,0.367,0.498,0.77C281.272,40.384,281.278,42.729,281.278,45.08z M229.1,23.392
			c-1.149-0.012-2.298-0.006-3.446-0.006c-1.456,0-1.438,0.006-2.013,1.314c-1.835,4.21-3.683,8.413-5.53,12.622
			c-1.705,3.89-3.41,7.786-5.127,11.676c-0.332,0.746-0.609,1.527-1.078,2.304c-0.1-0.166-0.166-0.261-0.213-0.362
			c-1.734-3.883-3.463-7.767-5.204-11.646c-2.298-5.133-4.601-10.254-6.892-15.387c-0.178-0.403-0.402-0.539-0.829-0.527
			c-1.392,0.018-2.788,0.006-4.179,0.006c-1.025,0-0.941-0.047-0.941,0.971v31.848c0,0.172,0.011,0.343,0,0.514
			c-0.018,0.344,0.129,0.48,0.473,0.475c0.781-0.012,1.568,0.006,2.351,0c1.397-0.018,1.22,0.184,1.22-1.189
			c0.006-8.414,0.006-16.827,0.006-25.246v-0.889c0.172,0.338,0.278,0.516,0.361,0.705c0.455,1.001,0.9,2.007,1.35,3.008
			c1.539,3.434,3.085,6.868,4.625,10.302c1.917,4.28,3.842,8.562,5.742,12.849c0.16,0.354,0.355,0.473,0.716,0.467
			c0.759-0.018,1.522-0.042,2.28,0.006c0.568,0.036,0.87-0.148,1.102-0.692c0.982-2.315,2.012-4.612,3.024-6.916
			c2.784-6.306,5.565-12.61,8.354-18.91c0.101-0.23,0.16-0.491,0.402-0.717v26.135c0,0.195,0.018,0.391,0,0.586
			c-0.029,0.385,0.148,0.515,0.516,0.509c0.959-0.018,1.912,0,2.865-0.006c0.651-0.006,0.651-0.012,0.664-0.646
			c0.006-0.125,0-0.248,0-0.366V24.399c0-0.143,0.006-0.29,0-0.438C229.679,23.41,229.674,23.392,229.1,23.392z"/>
		<path fill-rule="evenodd" clip-rule="evenodd" fill="#23AED8" d="M211.903,51.304c0.47-0.778,0.746-1.558,1.077-2.306
			c1.722-3.888,3.424-7.783,5.132-11.677c1.845-4.206,3.693-8.41,5.531-12.621c0.569-1.308,0.553-1.314,2.01-1.314
			c1.148,0,2.299-0.006,3.448,0.003c0.571,0.004,0.577,0.021,0.597,0.572c0.006,0.146,0,0.293,0,0.44c0,10.592,0,21.185,0,31.777
			c0,0.121,0.002,0.243,0,0.366c-0.013,0.635-0.013,0.642-0.665,0.646c-0.954,0.006-1.908-0.009-2.862,0.006
			c-0.371,0.005-0.547-0.124-0.518-0.508c0.016-0.194,0.003-0.392,0.003-0.588c-0.001-8.683-0.001-17.365-0.001-26.132
			c-0.244,0.227-0.305,0.488-0.406,0.717c-2.786,6.303-5.568,12.606-8.35,18.91c-1.016,2.303-2.045,4.6-3.025,6.917
			c-0.232,0.547-0.533,0.729-1.107,0.691c-0.754-0.049-1.516-0.025-2.273-0.007c-0.366,0.009-0.561-0.113-0.717-0.466
			c-1.904-4.288-3.826-8.568-5.746-12.849c-1.538-3.434-3.08-6.866-4.621-10.3c-0.451-1.003-0.896-2.008-1.351-3.009
			c-0.085-0.19-0.19-0.37-0.364-0.706c0,0.418,0,0.653,0,0.89c0,8.415,0.004,16.831-0.002,25.246c0,1.37,0.176,1.172-1.223,1.187
			c-0.783,0.009-1.566-0.007-2.35,0.004c-0.345,0.006-0.494-0.134-0.472-0.478c0.011-0.17,0.001-0.342,0.001-0.513
			c0-10.617-0.001-21.233,0-31.851c0-1.015-0.086-0.969,0.938-0.968c1.395,0.001,2.789,0.014,4.184-0.008
			c0.425-0.007,0.648,0.125,0.828,0.528c2.287,5.134,4.596,10.258,6.893,15.387c1.737,3.881,3.467,7.764,5.201,11.646
			C211.739,51.043,211.808,51.139,211.903,51.304z"/>
		<path fill-rule="evenodd" clip-rule="evenodd" fill="#23AED8" d="M285.387,23.392c-0.054,0-0.101-0.006-0.148-0.006
			c-1.124,0-2.249-0.006-3.374,0.006c-0.551,0-0.563,0.029-0.58,0.586c-0.006,0.148-0.006,0.296-0.006,0.438
			c0,2.765,0.006,5.529,0,8.295c0,0.237,0.064,0.485-0.083,0.751c-0.185-0.059-0.361-0.111-0.546-0.177
			c-0.183-0.065-0.36-0.148-0.55-0.201c-2.202-0.628-4.435-0.889-6.731-0.652c-1.42,0.148-2.801,0.403-4.127,0.919
			c-1.765,0.687-3.18,1.812-4.222,3.392c-1.131,1.718-1.586,3.654-1.776,5.672c-0.118,1.22-0.118,2.434-0.023,3.66
			c0.137,1.734,0.415,3.439,1.066,5.062c0.947,2.351,2.521,4.109,4.884,5.104c1.433,0.604,2.942,0.889,4.493,0.941
			c2.57,0.089,5.128-0.095,7.668-0.449c1.309-0.185,2.593-0.469,3.86-0.854c0.586-0.183,0.58-0.188,0.593-0.816V24.31
			c0-0.172-0.007-0.343,0-0.516C285.79,23.523,285.659,23.386,285.387,23.392z M281.278,45.08c0,2.273,0.006,4.547,0,6.82
			c0,0.663,0,0.663-0.629,0.841c-2.035,0.592-4.12,0.811-6.228,0.692c-1.462-0.077-2.836-0.474-4.009-1.415
			c-1.285-1.03-1.988-2.416-2.355-3.961c-0.504-2.131-0.61-4.292-0.201-6.465c0.563-2.996,2.587-4.867,5.605-5.252
			c2.352-0.296,4.625-0.035,6.851,0.74c0.16,0.054,0.314,0.13,0.479,0.184c0.385,0.118,0.504,0.367,0.498,0.77
			C281.272,40.384,281.278,42.729,281.278,45.08z"/>
		<path fill-rule="evenodd" clip-rule="evenodd" fill="#001329" d="M97.786,40.378c-0.107-3.049-1.551-5.169-4.393-6.323
			c-0.729-0.296-1.48-0.515-2.251-0.669c-2.492-0.492-5.002-0.533-7.519-0.255c-1.533,0.172-3.038,0.479-4.535,0.87
			c-0.35,0.089-0.521,0.249-0.504,0.646c0.03,0.806,0.007,1.617,0.013,2.422c0,0.184-0.071,0.391,0.089,0.538
			c0.035,0.006,0.059,0.019,0.083,0.012c0.282-0.064,0.568-0.136,0.853-0.201c2.841-0.704,5.72-1.071,8.648-0.816
			c1.132,0.101,2.228,0.331,3.221,0.899c1.02,0.587,1.659,1.444,1.783,2.623c0.1,0.947,0.06,1.901,0.03,2.938
			c-0.219-0.013-0.361-0.007-0.504-0.03c-2.333-0.319-4.677-0.461-7.028-0.385c-1.763,0.06-3.504,0.308-5.145,1.019
			c-2.077,0.894-3.41,2.41-3.89,4.636c-0.202,0.941-0.242,1.895-0.16,2.848c0.284,3.28,2.001,5.329,5.182,6.134
			c2.013,0.509,4.061,0.568,6.114,0.255c1.908-0.296,3.684-0.953,5.34-1.942c0.499-0.302,0.475-0.42,0.878,0.225
			c0.326,0.521,0.651,1.036,0.971,1.558c0.137,0.225,0.297,0.361,0.585,0.35c0.588-0.018,1.172-0.012,1.76,0
			c0.284,0.006,0.402-0.119,0.385-0.396c-0.006-0.167,0-0.338,0-0.509V41.26C97.792,40.97,97.798,40.674,97.786,40.378z
			 M93.322,49.271c0,0.633-0.024,1.267,0.012,1.9c0.017,0.438-0.126,0.717-0.499,0.959c-1.715,1.119-3.592,1.747-5.616,1.948
			c-0.925,0.089-1.849,0.137-2.784,0.018c-2.527-0.325-3.558-1.906-3.428-4.251c0.09-1.651,1.006-2.699,2.546-3.227
			c0.888-0.308,1.807-0.427,2.736-0.443c2.178-0.048,4.345,0.123,6.506,0.391c0.392,0.047,0.551,0.165,0.539,0.573
			C93.305,47.85,93.322,48.56,93.322,49.271z"/>
		<path fill-rule="evenodd" clip-rule="evenodd" fill="#001329" d="M71.552,40.917c-0.515-3.925-2.83-6.589-6.619-7.501
			c-2.511-0.604-5.038-0.609-7.566-0.083c-4.021,0.835-6.519,3.286-7.472,7.259c-0.747,3.091-0.729,6.211,0.094,9.29
			c0.865,3.232,2.831,5.535,5.968,6.772c1.374,0.539,2.808,0.823,4.276,0.96c2.302,0.213,4.594,0.076,6.879-0.178
			c0.993-0.112,1.978-0.308,2.955-0.557c0.266-0.071,0.432-0.166,0.426-0.479c-0.012-1.024-0.006-2.05-0.006-3.145
			c-0.22,0.042-0.314,0.054-0.402,0.077c-2.12,0.545-4.281,0.77-6.46,0.823c-1.475,0.035-2.937-0.023-4.375-0.379
			c-3.796-0.924-5.252-3.416-5.406-6.72c-0.018-0.35,0.107-0.498,0.456-0.463c0.172,0.013,0.343,0,0.516,0h16.14
			c0.545-0.005,0.55-0.011,0.61-0.556C71.765,44.333,71.776,42.628,71.552,40.917z M67.017,42.948
			c-0.532-0.012-1.071-0.006-1.61-0.006c-3.565,0-7.129,0.006-10.692,0c-0.267,0-0.539,0.036-0.794-0.054
			c0.022-3.587,2.103-5.76,5.091-6.258c1.161-0.195,2.328-0.225,3.5-0.048c2.682,0.403,4.346,2.031,4.778,4.714
			c0.065,0.408,0.095,0.822,0.148,1.231C67.478,42.853,67.331,42.959,67.017,42.948z"/>
		<path fill-rule="evenodd" clip-rule="evenodd" fill="#001329" d="M178.573,40.514c-0.658-3.818-2.961-6.287-6.738-7.141
			c-2.516-0.567-5.051-0.562-7.566,0c-3.695,0.823-6.129,3.044-7.141,6.702c-0.924,3.352-0.912,6.732,0.036,10.071
			c0.823,2.913,2.61,5.051,5.4,6.3c1.491,0.67,3.06,0.995,4.676,1.16c1.883,0.195,3.766,0.113,5.643-0.035
			c1.438-0.113,2.865-0.326,4.269-0.692c0.23-0.059,0.408-0.119,0.408-0.415c-0.006-1.048-0.006-2.096-0.006-3.232
			c-2.303,0.615-4.535,0.87-6.791,0.924c-1.498,0.035-2.983-0.029-4.445-0.379c-3.285-0.793-5.156-2.996-5.353-6.312
			c-0.065-1.066-0.047-0.871,0.817-0.871c5.387-0.005,10.77,0,16.15,0c0.676,0,0.688-0.005,0.753-0.668
			C178.856,44.12,178.886,42.321,178.573,40.514z M174.015,42.942c-2.097,0.006-4.199,0-6.301,0c-2.072,0-4.15,0.006-6.229,0
			c-0.562,0-0.58-0.018-0.51-0.58c0.091-0.675,0.226-1.345,0.463-1.989c0.658-1.765,1.871-2.948,3.676-3.487
			c1.771-0.532,3.564-0.586,5.354-0.118c1.781,0.468,2.99,1.586,3.6,3.333c0.266,0.764,0.408,1.557,0.438,2.362
			C174.517,42.924,174.511,42.942,174.015,42.942z"/>
		<path fill-rule="evenodd" clip-rule="evenodd" fill="#23AED8" d="M258.169,39.526c-0.751-3.44-2.794-5.689-6.217-6.607
			c-1.752-0.474-3.539-0.604-5.363-0.486c-1.551,0.101-3.055,0.344-4.494,0.925c-2.237,0.899-3.848,2.457-4.83,4.659
			c-0.605,1.35-0.912,2.771-1.066,4.245c-0.249,2.428-0.166,4.831,0.497,7.188c0.704,2.516,2.085,4.553,4.37,5.927
			c1.918,1.149,4.025,1.652,6.204,1.781c2.937,0.173,5.861,0.048,8.751-0.567c1.249-0.268,1.255-0.261,1.255-1.533
			c0-0.64,0.006-1.273-0.006-1.913c-0.012-0.396-0.106-0.455-0.503-0.396c-0.07,0.012-0.143,0.042-0.213,0.059
			c-2.505,0.617-5.057,0.841-7.626,0.776c-1.462-0.036-2.907-0.272-4.292-0.817c-2.813-1.112-3.967-3.646-3.973-6.187
			c0-0.326,0.135-0.444,0.438-0.427c0.172,0.006,0.344,0,0.515,0h15.851c0.763,0,0.793-0.006,0.875-0.722
			C258.567,43.458,258.596,41.486,258.169,39.526z M253.569,42.409c-0.734,0.006-1.469,0-2.197,0h-10.035
			c-0.686,0-0.716-0.012-0.639-0.698c0.313-2.782,1.781-4.943,4.878-5.524c1.386-0.26,2.76-0.302,4.139-0.006
			c2.563,0.551,3.831,2.209,4.269,4.613c0.06,0.337,0.113,0.674,0.131,1.012C254.149,42.355,254.114,42.397,253.569,42.409z"/>
		<path fill-rule="evenodd" clip-rule="evenodd" fill="#001329" d="M27.579,52.765c0,1.202-0.016,2.3,0.009,3.397
			c0.007,0.377-0.227,0.444-0.487,0.521c-1.362,0.396-2.744,0.71-4.149,0.91c-2.846,0.404-5.7,0.462-8.559,0.152
			c-2.276-0.246-4.478-0.787-6.534-1.815c-3.739-1.869-5.975-4.938-7.063-8.909c-0.679-2.476-0.85-5.005-0.781-7.559
			c0.046-1.693,0.245-3.365,0.685-5.002c1.314-4.888,4.431-8.051,9.231-9.575c2.421-0.77,4.916-1.044,7.447-1.083
			c3.248-0.049,6.442,0.295,9.566,1.209c0.771,0.225,0.629,0.203,0.633,0.837c0.006,1.002,0.002,2.003,0.002,2.984
			c-0.244,0.148-0.415,0.003-0.582-0.055c-3.808-1.328-7.716-1.728-11.71-1.254c-1.957,0.232-3.836,0.749-5.555,1.754
			c-2.555,1.494-4.094,3.752-4.767,6.584C4.13,39.38,4.207,42.909,5.279,46.369c1.31,4.23,4.295,6.661,8.555,7.56
			c4.285,0.903,8.509,0.513,12.663-0.806C26.82,53.021,27.138,52.911,27.579,52.765z"/>
		<path fill-rule="evenodd" clip-rule="evenodd" fill="#001329" d="M142.089,52.152c0.221-0.188,0.253-0.468,0.344-0.713
			c2.201-5.934,4.396-11.868,6.592-17.805c0.303-0.82,0.215-0.663,0.979-0.669c1.318-0.01,2.638-0.003,3.954-0.003
			c0.062,0.303-0.094,0.509-0.184,0.729c-3.233,7.813-6.468,15.625-9.703,23.438c-0.245,0.592-0.248,0.592-0.902,0.593
			c-0.954,0.002-1.908,0.004-2.861,0c-0.596-0.001-0.6-0.004-0.826-0.584c-1.375-3.529-2.748-7.06-4.121-10.59
			c-1.664-4.281-3.33-8.563-4.992-12.846c-0.084-0.221-0.242-0.429-0.172-0.738c1.459,0,2.924,0.007,4.388-0.005
			c0.341-0.002,0.389,0.239,0.472,0.463c0.514,1.374,1.022,2.748,1.534,4.122c1.729,4.648,3.46,9.298,5.194,13.945
			C141.87,51.714,141.913,51.962,142.089,52.152z"/>
		<path fill-rule="evenodd" clip-rule="evenodd" fill="#001329" d="M104.898,40.625c0-3.594,0-7.189,0-10.783
			c0-0.171,0.007-0.343,0-0.514c-0.012-0.247,0.096-0.354,0.346-0.354c0.709,0.005,1.417,0.01,2.126-0.004
			c0.341-0.006,0.384,0.216,0.443,0.466c0.234,0.998,0.504,1.989,0.706,2.994c0.087,0.432,0.271,0.544,0.688,0.54
			c1.883-0.02,3.766-0.012,5.648-0.007c0.592,0.001,0.596,0.009,0.6,0.608c0.006,0.808,0.007,1.614,0,2.422
			c-0.006,0.503-0.013,0.513-0.538,0.515c-1.614,0.006-3.228,0.001-4.841,0.004c-0.709,0.001-0.715,0.006-0.715,0.734
			c-0.001,4.45-0.002,8.9,0.002,13.351c0,0.562,0.025,1.123,0.197,1.669c0.336,1.06,1.038,1.684,2.146,1.836
			c0.95,0.132,1.904,0.045,2.857,0.069c0.195,0.005,0.391,0.005,0.587,0.002c0.21-0.001,0.307,0.098,0.305,0.312
			c-0.002,0.953-0.006,1.907,0.004,2.86c0.001,0.288-0.128,0.382-0.401,0.379c-0.732-0.01-1.466,0.003-2.201-0.004
			c-0.976-0.011-1.953,0.026-2.928-0.095c-2.781-0.347-4.52-2.045-4.898-4.831c-0.091-0.679-0.14-1.359-0.139-2.047
			C104.902,47.374,104.898,44,104.898,40.625z"/>
		<path fill-rule="evenodd" clip-rule="evenodd" fill="#001329" d="M38.208,35.984c0.226-0.021,0.349-0.224,0.509-0.359
			c1.956-1.658,4.23-2.499,6.775-2.646c0.637-0.036,0.64-0.03,0.645,0.629c0.004,0.808,0.005,1.615,0,2.422
			c-0.005,0.557-0.011,0.556-0.553,0.588c-1.005,0.061-1.989,0.22-2.945,0.55c-1.245,0.433-2.322,1.124-3.291,2.014
			c-0.39,0.357-0.548,0.734-0.545,1.274c0.021,5.456,0.015,10.911,0.012,16.367c0,1.007,0.111,0.894-0.901,0.898
			c-0.93,0.005-1.859,0.002-2.789,0.001c-0.781-0.001-0.738,0.074-0.738-0.769c0-2.324,0-4.648,0-6.973c0-5.406,0-10.813,0-16.221
			c0-0.893-0.049-0.793,0.78-0.797c0.588-0.004,1.176,0.017,1.762-0.007c0.33-0.014,0.485,0.106,0.558,0.426
			c0.181,0.786,0.388,1.565,0.586,2.347C38.093,35.817,38.079,35.926,38.208,35.984z"/>
		<path fill-rule="evenodd" clip-rule="evenodd" fill="#001329" d="M126.04,45.271c0,3.84,0,7.681,0,11.521
			c0,0.171-0.007,0.343,0,0.514c0.009,0.231-0.063,0.373-0.325,0.373c-1.248-0.003-2.495-0.004-3.743,0.001
			c-0.297,0.002-0.38-0.147-0.363-0.411c0.01-0.146,0.002-0.294,0.002-0.44c0-7.681,0-15.361,0-23.042
			c0-0.123,0.014-0.246-0.003-0.367c-0.052-0.403,0.152-0.49,0.513-0.485c1.125,0.016,2.251,0.001,3.375,0.008
			c0.533,0.003,0.541,0.012,0.543,0.588c0.006,1.37,0.002,2.739,0.002,4.109C126.04,40.182,126.04,42.727,126.04,45.271z"/>
		<path fill-rule="evenodd" clip-rule="evenodd" fill="#23AED8" d="M293.291,7.371c-3.796-0.012-6.814,2.943-6.833,6.673
			c-0.018,3.795,2.973,6.803,6.773,6.821c3.789,0.012,6.762-2.943,6.768-6.726C300.005,10.331,297.08,7.377,293.291,7.371z
			 M297.009,18.312c-1.516,1.433-3.334,1.83-5.305,1.237c-2.008-0.604-3.227-2.024-3.766-4.044c-0.059-0.237-0.1-0.479-0.13-0.722
			c-0.03-0.219-0.023-0.438-0.036-0.717c0.023-1.646,0.622-3.091,1.877-4.25c1.978-1.812,4.991-1.883,7.052-0.166
			C299.317,11.83,299.478,15.974,297.009,18.312z"/>
		<path fill-rule="evenodd" clip-rule="evenodd" fill="#14C6EF" d="M186.066,46.486c-1.101,0.001-2.202,0.007-3.302-0.002
			c-0.523-0.005-0.538-0.02-0.545-0.537c-0.012-0.732,0.007-1.467-0.008-2.2c-0.008-0.361,0.103-0.538,0.497-0.536
			c2.226,0.01,4.45,0.01,6.677,0c0.377-0.002,0.524,0.137,0.516,0.517c-0.018,0.757-0.021,1.517,0,2.273
			c0.013,0.405-0.182,0.493-0.534,0.49C188.267,46.479,187.166,46.486,186.066,46.486z"/>
		<path fill-rule="evenodd" clip-rule="evenodd" fill="#001329" d="M123.787,28.11c-0.61,0-1.22-0.004-1.83,0.002
			c-0.243,0.003-0.35-0.089-0.349-0.342c0.006-1.147,0.006-2.293,0.002-3.439c-0.002-0.253,0.11-0.342,0.353-0.341
			c1.243,0.004,2.487,0.005,3.731-0.001c0.252-0.001,0.346,0.105,0.346,0.348c-0.006,1.146-0.007,2.294,0,3.439
			c0.002,0.257-0.108,0.34-0.352,0.337C125.056,28.104,124.421,28.11,123.787,28.11z"/>
		<path fill-rule="evenodd" clip-rule="evenodd" fill="#FFFFFF" d="M295.766,16.044c-0.112-0.729-0.385-1.35-1.155-1.746
			c0.889-0.521,1.114-0.752,1.291-1.291c0.361-1.125-0.195-2.149-1.396-2.487c-1.055-0.296-2.126-0.219-3.197-0.089
			c-0.634,0.077-0.574,0.148-0.568,0.687c0,2.103,0.006,4.204,0.006,6.306c0,0.071,0.006,0.143,0,0.219
			c-0.012,0.237,0.082,0.373,0.337,0.361h0.29c0.616,0,0.622,0,0.629-0.592c0.005-0.705,0.011-1.416-0.013-2.125
			c-0.005-0.361,0.089-0.563,0.491-0.516c0.219,0.03,0.439,0.018,0.657,0.036c0.729,0.071,1.161,0.461,1.297,1.178
			c0.053,0.291,0.101,0.581,0.172,0.865c0.343,1.361,0.201,1.137,1.479,1.13c0.029,0,0.065-0.059,0.13-0.112
			C295.973,17.294,295.872,16.667,295.766,16.044z M293.877,13.682c-0.136,0.053-0.278,0.101-0.427,0.118
			c-0.236,0.036-0.484,0.048-0.557,0.054c-0.295,0-0.414-0.012-0.538,0c-0.284,0.017-0.386-0.113-0.386-0.391
			c0.014-0.586,0.007-1.178-0.006-1.765c-0.005-0.272,0.107-0.402,0.373-0.427c0.545-0.053,1.078-0.029,1.588,0.184
			c0.497,0.207,0.775,0.581,0.77,1.137C294.694,13.108,294.415,13.481,293.877,13.682z"/>
		<path fill-rule="evenodd" clip-rule="evenodd" fill="#23AED8" d="M295.766,16.044c-0.112-0.729-0.385-1.35-1.155-1.746
			c0.889-0.521,1.114-0.752,1.291-1.291c0.361-1.125-0.195-2.149-1.396-2.487c-1.055-0.296-2.126-0.219-3.197-0.089
			c-0.634,0.077-0.574,0.148-0.568,0.687c0,2.103,0.006,4.204,0.006,6.306c0,0.071,0.006,0.143,0,0.219
			c-0.012,0.237,0.082,0.373,0.337,0.361h0.29c0.616,0,0.622,0,0.629-0.592c0.005-0.705,0.011-1.416-0.013-2.125
			c-0.005-0.361,0.089-0.563,0.491-0.516c0.219,0.03,0.439,0.018,0.657,0.036c0.729,0.071,1.161,0.461,1.297,1.178
			c0.053,0.291,0.101,0.581,0.172,0.865c0.343,1.361,0.201,1.137,1.479,1.13c0.029,0,0.065-0.059,0.13-0.112
			C295.973,17.294,295.872,16.667,295.766,16.044z M293.877,13.682c-0.136,0.053-0.278,0.101-0.427,0.118
			c-0.236,0.036-0.484,0.048-0.557,0.054c-0.295,0-0.414-0.012-0.538,0c-0.284,0.017-0.386-0.113-0.386-0.391
			c0.014-0.586,0.007-1.178-0.006-1.765c-0.005-0.272,0.107-0.402,0.373-0.427c0.545-0.053,1.078-0.029,1.588,0.184
			c0.497,0.207,0.775,0.581,0.77,1.137C294.694,13.108,294.415,13.481,293.877,13.682z"/>
		<g>
			<path fill="#5B5B5B" d="M17.263,17.834c-1.485,0.567-3.088,0.851-4.806,0.851c-6.676,0-10.013-3.2-10.013-9.6
				C2.444,3.028,5.666,0,12.109,0c1.847,0,3.564,0.258,5.153,0.773v2.062c-1.589-0.601-3.221-0.902-4.896-0.902
				c-5.026,0-7.539,2.384-7.539,7.152c0,5.112,2.475,7.667,7.423,7.667c0.79,0,1.666-0.104,2.628-0.31V10.18h2.384V17.834z"/>
			<path fill="#5B5B5B" d="M20.936,18.556V5.026h1.611l0.425,1.727c1.186-1.151,2.612-1.727,4.278-1.727V7.01
				c-1.615,0-2.925,0.571-3.93,1.714v9.832H20.936z"/>
			<path fill="#5B5B5B" d="M28.99,11.791c0-4.51,2.147-6.765,6.443-6.765c4.295,0,6.442,2.255,6.442,6.765
				c0,4.502-2.147,6.752-6.442,6.752C31.154,18.543,29.007,16.293,28.99,11.791z M35.434,16.624c2.705,0,4.059-1.628,4.059-4.884
				c0-3.188-1.354-4.781-4.059-4.781c-2.707,0-4.06,1.594-4.06,4.781C31.374,14.996,32.727,16.624,35.434,16.624z"/>
			<path fill="#5B5B5B" d="M56.76,5.026v13.53h-1.637l-0.412-1.727c-1.641,1.151-3.291,1.727-4.948,1.727
				c-3.11,0-4.666-1.679-4.666-5.038V5.026h2.385v8.531c0,2.01,0.997,3.015,2.988,3.015c1.367,0,2.669-0.571,3.906-1.714V5.026
				H56.76z"/>
			<path fill="#5B5B5B" d="M60.626,5.58c1.795-0.37,3.65-0.554,5.566-0.554c4.339,0,6.508,2.144,6.508,6.43
				c0,4.734-2.183,7.1-6.546,7.1c-1.083,0-2.131-0.214-3.145-0.644v5.541h-2.384V5.58z M63.01,15.799
				c0.936,0.464,1.979,0.696,3.13,0.696c2.811,0,4.215-1.688,4.215-5.064c0-2.946-1.396-4.42-4.188-4.42
				c-1.203,0-2.255,0.103-3.157,0.309V15.799z"/>
		</g>
	</g>
</g>
</svg>
